<svg xmlns="http://www.w3.org/2000/svg" width="500" height="500"><g><path d="M216.69 428.605l37.564 37.117 37.627-37.117z"/><path d="M151.341 332.729l-74.222-68.019-17.704 99.107z"/><path d="M109.506 362.1c14.766 48.804 69.617 70.063 129.78 70.063" stroke="#000" stroke-width="30" stroke-linecap="square" fill="none"/><path d="M254.286 133.615v287.131" stroke="#000" stroke-width="30" stroke-linecap="square" fill="none"/><path transform="matrix(.556 0 0 .513 190.397 74.093)" d="M151 87a36 39 0 1 1-72 0 36 39 0 1 1 72 0z"/><path transform="matrix(1.043 0 0 .962 134.382 -2.558)" d="M151 87a36 39 0 1 1-72 0 36 39 0 1 1 72 0z" stroke="#000" stroke-width="19.965" fill="none"/><path d="M333.531 185.521h-158.49" stroke="#000" stroke-width="30" stroke-linecap="square" fill="none"/><path d="M357.23 332.729l74.222-68.019 17.704 99.107z"/><path d="M399.066 362.1c-14.766 48.804-69.617 70.063-129.78 70.063" stroke="#000" stroke-width="30" stroke-linecap="square" fill="none"/></g></svg>